<svg width="35" height="35" viewBox="0 0 35 35" fill="none" xmlns="http://www.w3.org/2000/svg">
<path d="M17.5 35C27.1653 35 35 27.1653 35 17.5L35 5.25C35 3.85761 34.4469 2.52226 33.4623 1.53769C32.4777 0.553124 31.1424 1.99192e-07 29.75 1.90286e-07L18.375 1.17529e-07L18.375 7.67725C18.375 9.429 18.4818 11.2437 19.4005 12.7347C20.0582 13.8033 20.9381 14.7179 21.9804 15.4164C23.0228 16.115 24.2031 16.5812 25.4415 16.7834L25.7766 16.8376C25.9148 16.8848 26.0347 16.9741 26.1197 17.0929C26.2046 17.2116 26.2502 17.354 26.2502 17.5C26.2502 17.646 26.2046 17.7884 26.1197 17.9071C26.0347 18.0259 25.9148 18.1152 25.7766 18.1624L25.4415 18.2166C23.6322 18.5122 21.9614 19.3686 20.665 20.665C19.3686 21.9613 18.5122 23.6321 18.2166 25.4415L18.1624 25.7766C18.1152 25.9148 18.0259 26.0347 17.9072 26.1196C17.7884 26.2046 17.646 26.2502 17.5 26.2502C17.354 26.2502 17.2117 26.2046 17.0929 26.1196C16.9741 26.0347 16.8849 25.9148 16.8376 25.7766L16.7834 25.4415C16.5812 24.2032 16.115 23.0228 15.4164 21.9805C14.7178 20.9382 13.8033 20.0583 12.7348 19.4005C11.2438 18.4818 9.42903 18.375 7.67728 18.375L0.0210417 18.375C0.478666 27.6334 8.12878 35 17.5 35Z" fill="#113B29"/>
<path d="M-1.06337e-07 16.6251L7.67724 16.6251C9.42899 16.6251 11.2437 16.5184 12.7347 15.5996C13.9002 14.8815 14.8814 13.9004 15.5995 12.7349C16.5182 11.2439 16.625 9.42911 16.625 7.67736L16.625 0.00010586L5.24999 0.000105788C3.85761 0.000105779 2.52225 0.553229 1.53769 1.5378C0.553123 2.52236 -2.46746e-08 3.85772 -3.35805e-08 5.25011L-1.06337e-07 16.6251Z" fill="#113B29"/>
</svg>
